REM DIRINDEX 1\2,1\3,1\4,1\5\6,1\5\7,1\8
REM DIRNAME folder01,folder02,folder03,folder04,folder05,folder06,folder07,folder08
TITLE ""
FILE "162 Åy162ÅzUnit10 (1825 bank on Å`_1836 go under).mp3" MP3
  TRACK 01 AUDIO
    TITLE "0:"
    INDEX 01 00:00:00
  TRACK 02 AUDIO
    TITLE "8:cjc115_6357"
    INDEX 01 00:00:07
  TRACK 03 AUDIO
    TITLE "0:"
    INDEX 01 00:01:42
  TRACK 04 AUDIO
    TITLE "2:cjc115_6358"
    INDEX 01 00:02:16
  TRACK 05 AUDIO
    TITLE "0:"
    INDEX 01 00:03:39
  TRACK 06 AUDIO
    TITLE "3:cjc115_6359"
    INDEX 01 00:03:49
  TRACK 07 AUDIO
    TITLE "0:"
    INDEX 01 00:05:09
  TRACK 08 AUDIO
    TITLE "4:cjc115_6360"
    INDEX 01 00:05:16
  TRACK 09 AUDIO
    TITLE "0:"
    INDEX 01 00:08:54
  TRACK 10 AUDIO
    TITLE "2:cjc115_6361"
    INDEX 01 00:09:63
  TRACK 11 AUDIO
    TITLE "0:"
    INDEX 01 00:11:13
  TRACK 12 AUDIO
    TITLE "3:cjc115_6362"
    INDEX 01 00:11:21
  TRACK 13 AUDIO
    TITLE "0:"
    INDEX 01 00:14:51
  TRACK 14 AUDIO
    TITLE "4:cjc115_6363"
    INDEX 01 00:14:58
  TRACK 15 AUDIO
    TITLE "0:"
    INDEX 01 00:18:48
  TRACK 16 AUDIO
    TITLE "2:cjc115_6364"
    INDEX 01 00:19:60
  TRACK 17 AUDIO
    TITLE "0:"
    INDEX 01 00:21:06
  TRACK 18 AUDIO
    TITLE "3:cjc115_6365"
    INDEX 01 00:21:13
  TRACK 19 AUDIO
    TITLE "0:"
    INDEX 01 00:23:30
  TRACK 20 AUDIO
    TITLE "4:cjc115_6366"
    INDEX 01 00:23:38
  TRACK 21 AUDIO
    TITLE "0:"
    INDEX 01 00:27:02
  TRACK 22 AUDIO
    TITLE "2:cjc115_6367"
    INDEX 01 00:28:12
  TRACK 23 AUDIO
    TITLE "0:"
    INDEX 01 00:29:34
  TRACK 24 AUDIO
    TITLE "3:cjc115_6368"
    INDEX 01 00:29:44
  TRACK 25 AUDIO
    TITLE "0:"
    INDEX 01 00:31:41
  TRACK 26 AUDIO
    TITLE "4:cjc115_6369"
    INDEX 01 00:31:45
  TRACK 27 AUDIO
    TITLE "0:"
    INDEX 01 00:35:15
  TRACK 28 AUDIO
    TITLE "2:cjc115_6370"
    INDEX 01 00:36:25
  TRACK 29 AUDIO
    TITLE "0:"
    INDEX 01 00:37:42
  TRACK 30 AUDIO
    TITLE "3:cjc115_6371"
    INDEX 01 00:37:52
  TRACK 31 AUDIO
    TITLE "0:"
    INDEX 01 00:39:05
  TRACK 32 AUDIO
    TITLE "4:cjc115_6372"
    INDEX 01 00:39:11
  TRACK 33 AUDIO
    TITLE "0:"
    INDEX 01 00:41:30
  TRACK 34 AUDIO
    TITLE "2:cjc115_6373"
    INDEX 01 00:42:41
  TRACK 35 AUDIO
    TITLE "0:"
    INDEX 01 00:44:12
  TRACK 36 AUDIO
    TITLE "3:cjc115_6374"
    INDEX 01 00:44:18
  TRACK 37 AUDIO
    TITLE "0:"
    INDEX 01 00:46:56
  TRACK 38 AUDIO
    TITLE "4:cjc115_6375"
    INDEX 01 00:46:64
  TRACK 39 AUDIO
    TITLE "0:"
    INDEX 01 00:49:63
  TRACK 40 AUDIO
    TITLE "2:cjc115_6376"
    INDEX 01 00:50:72
  TRACK 41 AUDIO
    TITLE "0:"
    INDEX 01 00:52:30
  TRACK 42 AUDIO
    TITLE "3:cjc115_6377"
    INDEX 01 00:52:37
  TRACK 43 AUDIO
    TITLE "0:"
    INDEX 01 00:53:68
  TRACK 44 AUDIO
    TITLE "4:cjc115_6378"
    INDEX 01 00:53:70
  TRACK 45 AUDIO
    TITLE "0:"
    INDEX 01 00:57:17
  TRACK 46 AUDIO
    TITLE "2:cjc115_6379"
    INDEX 01 00:58:26
  TRACK 47 AUDIO
    TITLE "0:"
    INDEX 01 00:59:57
  TRACK 48 AUDIO
    TITLE "3:cjc115_6380"
    INDEX 01 00:59:67
  TRACK 49 AUDIO
    TITLE "0:"
    INDEX 01 01:03:39
  TRACK 50 AUDIO
    TITLE "4:cjc115_6381"
    INDEX 01 01:03:45
  TRACK 51 AUDIO
    TITLE "0:"
    INDEX 01 01:06:30
  TRACK 52 AUDIO
    TITLE "2:cjc115_6382"
    INDEX 01 01:07:39
  TRACK 53 AUDIO
    TITLE "0:"
    INDEX 01 01:08:60
  TRACK 54 AUDIO
    TITLE "3:cjc115_6383"
    INDEX 01 01:08:70
  TRACK 55 AUDIO
    TITLE "0:"
    INDEX 01 01:10:08
  TRACK 56 AUDIO
    TITLE "4:cjc115_6384"
    INDEX 01 01:10:14
  TRACK 57 AUDIO
    TITLE "0:"
    INDEX 01 01:13:32
  TRACK 58 AUDIO
    TITLE "2:cjc115_6385"
    INDEX 01 01:14:45
  TRACK 59 AUDIO
    TITLE "0:"
    INDEX 01 01:15:72
  TRACK 60 AUDIO
    TITLE "3:cjc115_6386"
    INDEX 01 01:16:09
  TRACK 61 AUDIO
    TITLE "0:"
    INDEX 01 01:18:27
  TRACK 62 AUDIO
    TITLE "4:cjc115_6387"
    INDEX 01 01:18:37
  TRACK 63 AUDIO
    TITLE "0:"
    INDEX 01 01:22:13
  TRACK 64 AUDIO
    TITLE "2:cjc115_6388"
    INDEX 01 01:23:22
  TRACK 65 AUDIO
    TITLE "0:"
    INDEX 01 01:24:47
  TRACK 66 AUDIO
    TITLE "3:cjc115_6389"
    INDEX 01 01:24:59
  TRACK 67 AUDIO
    TITLE "0:"
    INDEX 01 01:27:36
  TRACK 68 AUDIO
    TITLE "4:cjc115_6390"
    INDEX 01 01:27:44
  TRACK 69 AUDIO
    TITLE "0:"
    INDEX 01 01:30:66
  TRACK 70 AUDIO
    TITLE "2:cjc115_6391"
    INDEX 01 01:31:69
  TRACK 71 AUDIO
    TITLE "0:"
    INDEX 01 01:33:21
  TRACK 72 AUDIO
    TITLE "3:cjc115_6392"
    INDEX 01 01:33:29
  TRACK 73 AUDIO
    TITLE "0:"
    INDEX 01 01:35:47
  TRACK 74 AUDIO
    TITLE "4:cjc115_6393"
    INDEX 01 01:35:59
  TRACK 75 AUDIO
    TITLE "0:"
    INDEX 01 01:38:63
